<svg xmlns="http://www.w3.org/2000/svg" width="34" height="26" viewBox="0 0 34 26">
  <metadata><?xpacket begin="﻿" id="W5M0MpCehiHzreSzNTczkc9d"?>
<x:xmpmeta xmlns:x="adobe:ns:meta/" x:xmptk="Adobe XMP Core 5.6-c142 79.160924, 2017/07/13-01:06:39        ">
   <rdf:RDF xmlns:rdf="http://www.w3.org/1999/02/22-rdf-syntax-ns#">
      <rdf:Description rdf:about=""/>
   </rdf:RDF>
</x:xmpmeta>
                                                                                                    
                                                                                                    
                                                                                                    
                                                                                                    
                                                                                                    
                                                                                                    
                                                                                                    
                                                                                                    
                                                                                                    
                                                                                                    
                                                                                                    
                                                                                                    
                                                                                                    
                                                                                                    
                                                                                                    
                                                                                                    
                                                                                                    
                                                                                                    
                                                                                                    
                                                                                                    
                           
<?xpacket end="w"?></metadata>
<defs>
    <style>
      .cls-1 {
        fill: #fff;
        fill-rule: evenodd;
        opacity: 0.5;
      }
    </style>
  </defs>
  <path class="cls-1" d="M1284.52,556.916a0.545,0.545,0,0,1-.08-0.079,1.153,1.153,0,0,0,.11-0.348c-0.1-.057-0.03-0.038-0.12-0.04l-0.15-.079a0.905,0.905,0,0,1-.4.307,0.164,0.164,0,0,1-.04.038c-0.06-.04-0.13-0.079-0.2-0.119a0.149,0.149,0,0,1-.04.039,0.6,0.6,0,0,0-.08-0.079c-0.03.013-.07,0.025-0.11,0.038a0.545,0.545,0,0,1-.08-0.079,0.149,0.149,0,0,0-.04.039,0.545,0.545,0,0,1-.08-0.079l-0.12.038c-0.03-.026-0.05-0.053-0.08-0.079l-0.12.038c-0.03-.026-0.05-0.052-0.08-0.078l-0.12.037a0.667,0.667,0,0,0-.08-0.079l-0.12.038a0.6,0.6,0,0,0-.08-0.078,1.069,1.069,0,0,0-.11.038,0.667,0.667,0,0,1-.08-0.079,0.147,0.147,0,0,0-.04.038,0.6,0.6,0,0,1-.08-0.078l-0.16,0a0.6,0.6,0,0,1-.08-0.078l-0.12.037c-0.11-.053-0.21-0.106-0.32-0.159a0.149,0.149,0,0,1-.04.039,0.6,0.6,0,0,0-.08-0.079l-0.12.038c-0.3-.12-0.61-0.24-0.91-0.359-0.01.013-.03,0.025-0.04,0.038-0.03-.026-0.05-0.052-0.08-0.078-0.01.012-.03,0.025-0.04,0.038-0.03-.026-0.05-0.052-0.08-0.079-0.01.014-.03,0.026-0.04,0.039a0.541,0.541,0,0,0-.08-0.078,0.164,0.164,0,0,1-.04.038,0.667,0.667,0,0,0-.08-0.079,0.136,0.136,0,0,1-.04.039,0.541,0.541,0,0,0-.08-0.078,0.164,0.164,0,0,1-.04.038c-0.06-.04-0.13-0.079-0.19-0.119l-0.12.038-0.12-.118a0.149,0.149,0,0,0-.04.039,0.667,0.667,0,0,1-.08-0.079,0.164,0.164,0,0,0-.04.038c-0.03-.026-0.05-0.052-0.08-0.078l-0.12.038c-0.03-.027-0.05-0.052-0.08-0.079-0.01.013-.03,0.026-0.04,0.038-0.03-.025-0.05-0.052-0.08-0.078-0.01.013-.03,0.025-0.04,0.039a0.545,0.545,0,0,0-.08-0.079,0.147,0.147,0,0,1-.04.038,0.6,0.6,0,0,0-.08-0.078,0.147,0.147,0,0,1-.04.038,0.6,0.6,0,0,0-.08-0.078,0.147,0.147,0,0,1-.04.038,0.667,0.667,0,0,0-.08-0.079h-0.15a0.6,0.6,0,0,1-.08-0.079l-0.12.038-0.92-.359c-0.04.012-.08,0.025-0.11,0.037a0.6,0.6,0,0,1-.08-0.078l-0.16,0a0.6,0.6,0,0,1-.08-0.078,0.147,0.147,0,0,0-.04.038,0.545,0.545,0,0,1-.08-0.079,0.186,0.186,0,0,0-.04.039c-0.07-.039-0.13-0.079-0.2-0.119l-0.12.038-0.48-.238c-0.04.013-.08,0.025-0.11,0.038-0.11-.053-0.22-0.106-0.32-0.159l-0.12.038c-0.07-.04-0.13-0.079-0.2-0.119l-0.12.038c-0.07-.04-0.13-0.079-0.2-0.119l-0.12.038a0.6,0.6,0,0,0-.08-0.079,0.149,0.149,0,0,1-.04.039,0.6,0.6,0,0,0-.08-0.079,0.165,0.165,0,0,1-.04.039l-0.15-.08-0.12.038a0.6,0.6,0,0,1-.08-0.079,0.149,0.149,0,0,0-.04.039,0.667,0.667,0,0,1-.08-0.079l-0.12.038c-0.07-.04-0.13-0.08-0.2-0.119l-0.12.038a0.6,0.6,0,0,0-.08-0.079l-0.12.038c-0.05-.027-0.1-0.053-0.16-0.079l-0.03.038c-0.07-.039-0.14-0.079-0.2-0.119l-0.12.038c-0.07-.039-0.13-0.079-0.2-0.119l-0.12.038c-0.03-.026-0.05-0.052-0.08-0.078-0.01.012-.03,0.025-0.04,0.038-0.05-.026-0.1-0.053-0.16-0.079l-0.12.037a0.6,0.6,0,0,0-.08-0.078c-0.04.012-.07,0.025-0.11,0.038a1.4,1.4,0,0,0-.92-0.2,0.167,0.167,0,0,1,.04.04,0.134,0.134,0,0,1-.04.038,0.667,0.667,0,0,1,.08.079,0.147,0.147,0,0,1-.04.038c0.06,0.027.11,0.053,0.16,0.08-0.02.025-.05,0.051-0.07,0.077a0.151,0.151,0,0,1-.04-0.04c-0.18-.04-0.35-0.081-0.52-0.121-0.03.051-.05,0.1-0.08,0.154,0.03,0.027.05,0.052,0.08,0.079a0.147,0.147,0,0,1-.04.038l0.12,0.041-0.12.115a0.151,0.151,0,0,0-.04-0.04c-0.04.038-.07,0.077-0.11,0.116a0.718,0.718,0,0,0,.16.235,0.149,0.149,0,0,1,.04-0.039l0.24,0.158,0.03-.038c0.06,0.052.11,0.1,0.16,0.156a0.134,0.134,0,0,0,.04-0.038l0.12,0.118a0.164,0.164,0,0,0,.04-0.038c0.07,0.065.14,0.13,0.2,0.2a0.149,0.149,0,0,0,.04-0.039l0.12,0.118,0.12-.037,0.24,0.158,0.12-.038a0.6,0.6,0,0,0,.08.078l0.12-.037a0.6,0.6,0,0,0,.08.078,0.147,0.147,0,0,1,.04-0.038l0.15,0.079,0.12-.038a0.667,0.667,0,0,1,.08.079l0.12-.038c0.05,0.027.11,0.053,0.16,0.08,0.01-.013.03-0.026,0.04-0.039,0.07,0.04.13,0.079,0.2,0.119a0.149,0.149,0,0,1,.04-0.039c0.05,0.027.1,0.054,0.16,0.08l0.12-.038a0.6,0.6,0,0,0,.08.079l0.03-.039a0.6,0.6,0,0,1,.08.079l0.12-.038c0.07,0.04.14,0.079,0.2,0.119a0.149,0.149,0,0,0,.04-0.039c0.05,0.027.11,0.053,0.16,0.08l0.12-.038c0.07,0.04.13,0.079,0.2,0.118l0.12-.037c0.06,0.039.13,0.079,0.2,0.119l0.11-.038c0.07,0.039.14,0.079,0.2,0.119l0.12-.038c0.07,0.04.13,0.079,0.2,0.119l0.12-.038c0.03,0.026.05,0.052,0.08,0.079,0.01-.014.03-0.026,0.04-0.039a0.6,0.6,0,0,0,.08.079h0.16a0.545,0.545,0,0,0,.08.079c0.04-.013.08-0.026,0.11-0.038a0.545,0.545,0,0,1,.08.079h0.16a0.6,0.6,0,0,1,.08.079,0.147,0.147,0,0,0,.04-0.038,0.541,0.541,0,0,1,.08.078,0.149,0.149,0,0,0,.04-0.039c0.03,0.027.05,0.052,0.08,0.079,0.01-.013.03-0.025,0.04-0.038,0.03,0.025.05,0.052,0.08,0.078,0.01-.013.03-0.025,0.04-0.039,0.03,0.027.05,0.053,0.08,0.079l0.12-.037a0.6,0.6,0,0,0,.08.078l0.16,0a0.6,0.6,0,0,0,.08.078,0.164,0.164,0,0,1,.04-0.038,0.6,0.6,0,0,0,.08.078l0.03-.038a0.545,0.545,0,0,1,.08.079,0.149,0.149,0,0,0,.04-0.039c0.07,0.04.14,0.079,0.2,0.119l0.12-.038,0.92,0.359c0.04-.012.07-0.025,0.11-0.038l0.24,0.158a0.134,0.134,0,0,0,.04-0.038c0.07,0.04.14,0.079,0.2,0.119,0.01-.013.03-0.026,0.04-0.039,0.03,0.026.05,0.052,0.08,0.079l0.12-.038,0.48,0.238a0.134,0.134,0,0,1,.04-0.038,0.6,0.6,0,0,0,.08.078,0.147,0.147,0,0,1,.04-0.038,0.6,0.6,0,0,0,.08.078l0.15,0a0.545,0.545,0,0,1,.08.079l0.12-.038a0.664,0.664,0,0,1,.08.078l0.16,0c0.03,0.026.05,0.053,0.08,0.078,0.01-.013.03-0.025,0.04-0.038,0.03,0.027.05,0.052,0.08,0.079,0.01-.013.03-0.026,0.04-0.039,0.03,0.026.05,0.053,0.08,0.079a0.149,0.149,0,0,1,.04-0.039,0.545,0.545,0,0,0,.08.079h0.16a0.545,0.545,0,0,0,.08.079c0.04-.012.07-0.025,0.11-0.038a0.6,0.6,0,0,1,.08.079,0.136,0.136,0,0,0,.04-0.039,0.667,0.667,0,0,1,.08.079,0.164,0.164,0,0,0,.04-0.038,0.541,0.541,0,0,1,.08.078l0.16,0c0.03,0.026.05,0.052,0.08,0.078l0.12-.038c0.03,0.027.05,0.053,0.08,0.079,0.01-.013.03-0.026,0.04-0.039,0.03,0.027.05,0.053,0.08,0.079a0.147,0.147,0,0,1,.04-0.038c0.05,0.026.1,0.052,0.16,0.079a8.9,8.9,0,0,1-1.49,1.384c-0.15.141-.29,0.282-0.44,0.422-0.19.167-.39,0.333-0.58,0.5a0.165,0.165,0,0,1-.04-0.039l-0.36.345a0.186,0.186,0,0,0-.04-0.039c-0.11.116-.23,0.231-0.35,0.347-0.01-.014-0.03-0.027-0.04-0.04-0.12.115-.23,0.231-0.35,0.346a0.149,0.149,0,0,1-.04-0.039c-0.11.1-.21,0.205-0.32,0.308a0.136,0.136,0,0,0-.04-0.039l-0.39.384a0.167,0.167,0,0,0-.04-0.04c-0.14.142-.29,0.283-0.43,0.424-0.01-.013-0.03-0.027-0.04-0.04-0.31.282-.63,0.564-0.94,0.846-0.01-.014-0.03-0.027-0.04-0.039l-0.39.384c-0.69.368-1.36,1.087-2.05,1.456l-1.29,1.035c-0.3.158-.65,0.454-0.95,0.612l-0.27.27a0.167,0.167,0,0,1-.04-0.04l-0.24.231a0.149,0.149,0,0,0-.04-0.039l-0.27.269c-0.85.439-1.67,1.241-2.52,1.684l-0.51.422c-0.48.253-.98,0.707-1.45,0.956-0.08.078-.16,0.154-0.24,0.231-0.35.183-.75,0.5-1.1,0.688-0.08.078-.16,0.154-0.24,0.231a0.149,0.149,0,0,0-.04-0.039l-0.9.651c-0.24.119-.55,0.335-0.79,0.458-0.06.064-.13,0.128-0.19,0.192-0.59.294-1.2,0.745-1.78,1.032-0.06.064-.13,0.128-0.19,0.192-0.01-.013-0.03-0.026-0.04-0.039-0.05.051-.11,0.1-0.16,0.154-0.01-.014-0.03-0.027-0.04-0.04-0.06.064-.13,0.128-0.19,0.192a0.149,0.149,0,0,1-.04-0.039,2.148,2.148,0,0,0-.16.154c-0.01-.013-0.03-0.026-0.04-0.039-0.05.051-.11,0.1-0.16,0.154a0.151,0.151,0,0,0-.04-0.04l-0.39.307c-0.64.3-1.3,0.743-1.93,1.029a2.148,2.148,0,0,1-.16.154,0.149,0.149,0,0,0-.04-0.039,1.291,1.291,0,0,0-.11.115,0.149,0.149,0,0,1-.04-0.039c-0.06.051-.11,0.1-0.16,0.154-0.01-.013-0.03-0.026-0.04-0.039-0.15.089-.29,0.178-0.43,0.268a0.167,0.167,0,0,1-.04-0.04,0.593,0.593,0,0,0-.08.077,0.138,0.138,0,0,1-.04-0.04l-0.12.116c-0.01-.013-0.03-0.026-0.04-0.039l-0.12.115a0.149,0.149,0,0,0-.04-0.039,0.661,0.661,0,0,1-.08.077,0.136,0.136,0,0,0-.04-0.039c-0.06.037-.13,0.076-0.19,0.114a0.149,0.149,0,0,1-.04-0.039c-0.07.038-.13,0.076-0.2,0.114-0.01-.013-0.03-0.026-0.04-0.039-0.07.038-.13,0.076-0.2,0.115a0.151,0.151,0,0,0-.04-0.04,0.593,0.593,0,0,1-.08.077,0.149,0.149,0,0,0-.04-0.039c-0.02.025-.05,0.051-0.07,0.077a0.149,0.149,0,0,1-.04-0.039,0.537,0.537,0,0,0-.08.077,0.167,0.167,0,0,1-.04-0.04c-0.03.026-.05,0.051-0.08,0.077-0.01-.013-0.03-0.026-0.04-0.039-0.03.026-.05,0.051-0.08,0.077-0.01-.014-0.03-0.026-0.04-0.039-0.03.025-.05,0.051-0.08,0.076a0.165,0.165,0,0,0-.04-0.039,0.593,0.593,0,0,1-.08.077,0.149,0.149,0,0,0-.04-0.039c-0.02.025-.05,0.051-0.07,0.077a0.151,0.151,0,0,1-.04-0.04,0.661,0.661,0,0,0-.08.077h-0.16c-0.03.025-.05,0.051-0.08,0.076l-0.12-.039c-0.06.038-.13,0.076-0.2,0.114-0.03-.013-0.07-0.027-0.11-0.04-0.07.038-.14,0.076-0.2,0.115l-0.12-.041c-0.11.051-.21,0.1-0.32,0.152-0.04-.013-0.07-0.026-0.11-0.039a0.589,0.589,0,0,0-.08.076l-0.12-.04c-0.03.026-.05,0.051-0.08,0.078l-0.12-.041c-0.03.026-.05,0.052-0.08,0.077l-0.12-.04c-0.06.038-.13,0.076-0.19,0.115l-0.12-.041a0.6,0.6,0,0,0-.08.078l-0.12-.041c-0.07.039-.13,0.077-0.2,0.115a0.136,0.136,0,0,0-.04-0.039c-0.08.076-.15,0.153-0.23,0.23a0.149,0.149,0,0,1-.04-0.039l-0.36.191a0.136,0.136,0,0,1,.04.039l-0.15.154a0.515,0.515,0,0,0,.04.116c-0.06.052-.11,0.1-0.16,0.155,0.01,0.012.03,0.026,0.04,0.039-0.01.013-.03,0.025-0.04,0.038a0.737,0.737,0,0,0,.12.2,0.463,0.463,0,0,0,.32-0.153,0.545,0.545,0,0,0,.08.079l-0.12.116c0.01,0.013.03,0.026,0.04,0.039-0.01.013-.03,0.026-0.04,0.038,0.05,0.053.11,0.1,0.16,0.158a0.709,0.709,0,0,0,.24-0.154c0.1,0.168.02,0.181,0.12,0.351a0.437,0.437,0,0,1,.16,0c0.14-.05.18-0.2,0.31-0.23l0.12,0.04c0.07-.038.13-0.076,0.2-0.114l0.12,0.04c0.02-.026.05-0.052,0.07-0.077a0.149,0.149,0,0,1,.04.039,0.593,0.593,0,0,0,.08-0.077,0.149,0.149,0,0,1,.04.039c0.05-.025.11-0.051,0.16-0.076l0.12,0.04c0.06-.037.13-0.076,0.2-0.114l0.12,0.04c0.06-.038.13-0.076,0.19-0.115l0.12,0.041c0.07-.039.13-0.077,0.2-0.115l0.12,0.04c0.06-.038.13-0.077,0.19-0.114l0.12,0.039a0.534,0.534,0,0,0,.08-0.076h0.16c0.03-.025.05-0.051,0.08-0.077a0.151,0.151,0,0,0,.04.04,0.537,0.537,0,0,1,.08-0.077,0.149,0.149,0,0,0,.04.039,0.593,0.593,0,0,1,.08-0.077l0.03,0.039a0.589,0.589,0,0,0,.08-0.076,0.136,0.136,0,0,1,.04.039,0.661,0.661,0,0,0,.08-0.077l0.16,0c0.03-.026.05-0.052,0.08-0.078l0.12,0.041,0.12-.115c0.04,0.012.07,0.026,0.11,0.039l0.48-.228,0.12,0.04a1.067,1.067,0,0,0,.11-0.115,0.149,0.149,0,0,1,.04.039,0.537,0.537,0,0,0,.08-0.077,0.165,0.165,0,0,1,.04.039c0.09-.063.19-0.127,0.28-0.191a0.149,0.149,0,0,0,.04.039,0.593,0.593,0,0,1,.08-0.077,0.151,0.151,0,0,0,.04.04l0.63-.383c0.41-.185.88-0.449,1.3-0.647,0.11-.089.23-0.179,0.35-0.268,0.86-.409,1.73-1.02,2.6-1.45,0.27-.191.55-0.383,0.82-0.574a0.149,0.149,0,0,1,.04.039c0.07-.064.13-0.128,0.2-0.192,0.01,0.013.03,0.025,0.04,0.039,0.05-.051.1-0.1,0.16-0.154a0.149,0.149,0,0,0,.04.039c0.06-.064.13-0.128,0.19-0.192a0.149,0.149,0,0,1,.04.039c0.07-.064.13-0.128,0.2-0.192,0.01,0.013.03,0.026,0.04,0.039,0.06-.064.13-0.128,0.19-0.192a0.149,0.149,0,0,1,.04.039c0.15-.115.29-0.23,0.44-0.345,0.55-.278,1.14-0.754,1.69-1.032l1.92-1.418c0.76-.4,1.49-1.093,2.25-1.492l0.27-.269c0.01,0.013.03,0.026,0.04,0.039l0.24-.231a0.149,0.149,0,0,0,.04.039c0.07-.076.15-0.154,0.23-0.23,0.01,0.013.03,0.026,0.04,0.039l0.24-.231a0.136,0.136,0,0,0,.04.039l0.27-.269c0.01,0.013.03,0.026,0.04,0.04,0.09-.09.18-0.18,0.28-0.27a0.151,0.151,0,0,0,.04.04l1.17-.921c0.78-.411,1.54-1.226,2.32-1.647,0.11-.1.21-0.205,0.32-0.307a0.165,0.165,0,0,0,.04.039l0.27-.269c0.01,0.013.03,0.026,0.04,0.038,0.11-.1.21-0.2,0.32-0.307,0.01,0.013.02,0.027,0.03,0.039l1.38-1.19c0.01,0.013.03,0.026,0.04,0.039,0.14-.141.29-0.282,0.43-0.423,0.01,0.013.03,0.027,0.04,0.039,0.14-.141.29-0.282,0.43-0.423,0.01,0.014.03,0.027,0.04,0.039,0.13-.127.26-0.256,0.39-0.384a0.138,0.138,0,0,1,.04.04c0.11-.1.21-0.206,0.32-0.308a0.149,0.149,0,0,0,.04.039c0.11-.115.23-0.231,0.35-0.346,0.01,0.013.03,0.026,0.04,0.039,0.12-.115.24-0.231,0.35-0.346a0.149,0.149,0,0,1,.04.039l0.36-.346a8.9,8.9,0,0,0,1.53-1.266,0.149,0.149,0,0,0,.04.039c-0.03.052-.05,0.1-0.08,0.154,0.01,0.014.03,0.027,0.04,0.04-0.05.077-.1,0.154-0.16,0.231a0.151,0.151,0,0,1,.04.04,0.589,0.589,0,0,1-.08.076,0.167,0.167,0,0,1,.04.04,1.168,1.168,0,0,1-.11.115,0.151,0.151,0,0,0,.04.04l-0.12.192c0.01,0.014.03,0.027,0.04,0.04l-0.12.115a0.138,0.138,0,0,1,.04.04,0.589,0.589,0,0,1-.08.076,0.151,0.151,0,0,1,.04.04,2.009,2.009,0,0,1-.11.193,0.149,0.149,0,0,0,.04.039l-0.12.115c0.01,0.014.03,0.027,0.04,0.04l-0.12.193a0.149,0.149,0,0,1,.04.039,1.291,1.291,0,0,0-.11.115,0.151,0.151,0,0,0,.04.04,0.537,0.537,0,0,0-.08.077,0.165,0.165,0,0,0,.04.039l-0.12.115c0.01,0.013.03,0.026,0.04,0.039l-0.12.194a0.149,0.149,0,0,1,.04.039l-0.12.115a0.165,0.165,0,0,1,.04.039c-0.02.026-.05,0.052-0.07,0.078a0.165,0.165,0,0,0,.04.039l-0.12.115c0.01,0.013.03,0.026,0.04,0.039-0.03.026-.05,0.051-0.08,0.077,0.01,0.013.03,0.027,0.04,0.039l-0.12.116a0.149,0.149,0,0,1,.04.039,0.537,0.537,0,0,1-.08.077,0.149,0.149,0,0,1,.04.039c-0.04.039-.07,0.077-0.11,0.116a0.149,0.149,0,0,0,.04.039,0.593,0.593,0,0,0-.08.077,0.149,0.149,0,0,0,.04.039l-0.12.116c0.01,0.012.03,0.026,0.04,0.039l-0.12.193a0.149,0.149,0,0,1,.04.039c-0.05.1-.1,0.207-0.15,0.309a0.151,0.151,0,0,0,.04.04c-0.03.025-.05,0.051-0.08,0.077,0.01,0.039.03,0.078,0.04,0.116-0.03.026-.05,0.052-0.08,0.078a0.523,0.523,0,0,1,.04.117,1.882,1.882,0,0,0-.11.192,0.548,0.548,0,0,0,.04.118,0.589,0.589,0,0,0-.08.076,0.138,0.138,0,0,0,.04.04c-0.03.025-.05,0.051-0.08,0.077,0.01,0.039.03,0.078,0.04,0.117l-0.15.309a0.54,0.54,0,0,0,.04.117,0.593,0.593,0,0,0-.08.077,0.149,0.149,0,0,0,.04.039c-0.03.026-.05,0.051-0.08,0.077,0.01,0.013.03,0.026,0.04,0.039l-0.12.116c0.01,0.013.03,0.026,0.04,0.039l-0.12.193a0.149,0.149,0,0,1,.04.039,1.174,1.174,0,0,1-.11.116,0.149,0.149,0,0,0,.04.039,0.593,0.593,0,0,0-.08.077c0.01,0.013.03,0.026,0.04,0.039l-0.12.116c0.01,0.012.03,0.026,0.04,0.039-0.03.025-.05,0.051-0.08,0.077a0.149,0.149,0,0,1,.04.039l-0.15.232a0.165,0.165,0,0,0,.04.039l-0.12.115c0.01,0.013.03,0.027,0.04,0.039-0.03.026-.05,0.052-0.08,0.077,0.01,0.013.03,0.027,0.04,0.039-0.06.091-.13,0.181-0.19,0.271a0.149,0.149,0,0,0,.04.039,0.593,0.593,0,0,0-.08.077,0.149,0.149,0,0,0,.04.039l-0.12.115c0.01,0.013.03,0.027,0.04,0.04l-0.12.193a0.149,0.149,0,0,1,.04.039l-0.12.116a0.147,0.147,0,0,1,.04.038c-0.02.027-.05,0.052-0.07,0.078a0.165,0.165,0,0,0,.04.039l-0.12.193c0.01,0.013.03,0.026,0.04,0.039l-0.12.116c0.01,0.013.03,0.026,0.04,0.039a0.593,0.593,0,0,1-.08.077,0.149,0.149,0,0,1,.04.039l-0.15.309a0.167,0.167,0,0,0,.04.04l-0.12.115c0.01,0.013.03,0.026,0.04,0.039-0.03.026-.05,0.052-0.08,0.077a0.149,0.149,0,0,1,.04.039l-0.12.116a0.149,0.149,0,0,1,.04.039c-0.02.026-.05,0.051-0.07,0.077a0.149,0.149,0,0,0,.04.039c-0.1.142-.19,0.284-0.28,0.425a0.149,0.149,0,0,1,.04.039,1.291,1.291,0,0,0-.11.115,0.138,0.138,0,0,0,.04.04,0.537,0.537,0,0,0-.08.077,0.149,0.149,0,0,0,.04.039l-0.12.115c0.01,0.014.03,0.026,0.04,0.039l-0.12.116c0.01,0.013.03,0.026,0.04,0.039l-0.12.116a0.149,0.149,0,0,1,.04.039c-0.07.1-.15,0.205-0.23,0.309,0.01,0.012.03,0.025,0.04,0.038-0.12.168-.24,0.335-0.35,0.5,0.01,0.065.03,0.13,0.04,0.195l-0.12.115a0.151,0.151,0,0,1,.04.04,0.2,0.2,0,0,0,.08.234,0.87,0.87,0,0,0,.28-0.192c0.08-.155.15-0.309,0.23-0.464,0.03,0.026.05,0.053,0.08,0.079-0.1.206-.21,0.412-0.31,0.618,0.05,0.053.11,0.105,0.16,0.157a0.106,0.106,0,0,1,.08,0c0.07-.09.13-0.18,0.2-0.27a0.167,0.167,0,0,0,.04.04,0.078,0.078,0,0,1,.07,0,0.426,0.426,0,0,0-.07.466,0.462,0.462,0,0,1,.2.041c0.28-.516.57-1.031,0.85-1.546a0.149,0.149,0,0,0-.04-0.039,0.593,0.593,0,0,0,.08-0.077,0.149,0.149,0,0,0-.04-0.039c0.09-.142.18-0.283,0.28-0.425a0.149,0.149,0,0,1-.04-0.039c0.02-.026.05-0.051,0.07-0.077a0.149,0.149,0,0,0-.04-0.039l0.12-.116c-0.01-.013-0.03-0.026-0.04-0.039,0.03-.026.05-0.051,0.08-0.077-0.01-.013-0.03-0.026-0.04-0.039l0.12-.116a0.149,0.149,0,0,1-.04-0.039,1.793,1.793,0,0,0,.11-0.193,0.149,0.149,0,0,0-.04-0.039l0.12-.116a0.149,0.149,0,0,0-.04-0.039c0.03-.026.05-0.051,0.08-0.077-0.01-.013-0.03-0.026-0.04-0.039,0.05-.1.1-0.206,0.16-0.309a0.138,0.138,0,0,1-.04-0.04,1.291,1.291,0,0,1,.11-0.115,0.149,0.149,0,0,0-.04-0.039l0.12-.193c-0.01-.014-0.03-0.026-0.04-0.04l0.12-.115a0.149,0.149,0,0,1-.04-0.039,0.537,0.537,0,0,1,.08-0.077,0.138,0.138,0,0,1-.04-0.04c0.06-.09.13-0.179,0.19-0.269-0.01-.014-0.03-0.027-0.04-0.04,0.03-.025.05-0.051,0.08-0.076-0.01-.014-0.03-0.027-0.04-0.04l0.12-.115a0.138,0.138,0,0,1-.04-0.04,0.589,0.589,0,0,1,.08-0.076,0.151,0.151,0,0,1-.04-0.04c0.04-.038.07-0.077,0.11-0.115a0.149,0.149,0,0,0-.04-0.039l0.12-.193c-0.01-.014-0.03-0.026-0.04-0.04l0.12-.115a0.149,0.149,0,0,1-.04-0.039,0.537,0.537,0,0,1,.08-0.077,0.151,0.151,0,0,1-.04-0.04c0.04-.038.07-0.076,0.11-0.115a0.149,0.149,0,0,0-.04-0.039l0.12-.193c-0.01-.013-0.03-0.026-0.04-0.04l0.12-.115c-0.01-.013-0.03-0.026-0.04-0.039a0.593,0.593,0,0,1,.08-0.077,0.149,0.149,0,0,1-.04-0.039,1.907,1.907,0,0,0,.11-0.194,0.165,0.165,0,0,0-.04-0.039,0.593,0.593,0,0,0,.08-0.077,0.149,0.149,0,0,0-.04-0.039c0.03-.026.05-0.051,0.08-0.077-0.01-.013-0.03-0.026-0.04-0.039,0.03-.026.05-0.052,0.08-0.077-0.01-.013-0.03-0.026-0.04-0.039,0.03-.026.05-0.052,0.08-0.077a0.149,0.149,0,0,1-.04-0.039,0.537,0.537,0,0,1,.08-0.077,0.167,0.167,0,0,1-.04-0.04c0.02-.025.05-0.051,0.07-0.076a0.138,0.138,0,0,0-.04-0.04,0.537,0.537,0,0,0,.08-0.077,0.149,0.149,0,0,0-.04-0.039,0.593,0.593,0,0,0,.08-0.077c-0.01-.013-0.03-0.026-0.04-0.039,0.03-.026.05-0.051,0.08-0.077v-0.156a0.661,0.661,0,0,1,.08-0.077,0.515,0.515,0,0,1-.04-0.116,1.793,1.793,0,0,1,.11-0.193,0.53,0.53,0,0,0-.04-0.118c0.03-.051.05-0.1,0.08-0.154-0.01-.013-0.03-0.026-0.04-0.039l0.12-.194a0.149,0.149,0,0,1-.04-0.039c0.04-.064.07-0.129,0.11-0.193a0.149,0.149,0,0,0-.04-0.039l0.12-.115c-0.01-.014-0.03-0.027-0.04-0.04l0.12-.193a0.149,0.149,0,0,1-.04-0.039l0.12-.115a0.167,0.167,0,0,1-.04-0.04c0.02-.025.05-0.051,0.07-0.077a0.149,0.149,0,0,0-.04-0.039l0.12-.115a0.151,0.151,0,0,0-.04-0.04l0.12-.193c-0.01-.013-0.03-0.026-0.04-0.039l0.15-.231a0.138,0.138,0,0,0-.04-0.04l0.12-.115a0.151,0.151,0,0,0-.04-0.04l0.12-.193c-0.01-.013-0.03-0.026-0.04-0.039l0.12-.115a0.138,0.138,0,0,1-.04-0.04c0.04-.064.07-0.128,0.11-0.193a0.149,0.149,0,0,0-.04-0.039l0.12-.115c-0.01-.013-0.03-0.026-0.04-0.04,0.03-.025.05-0.051,0.08-0.077-0.01-.012-0.03-0.026-0.04-0.039l0.12-.193a0.149,0.149,0,0,1-.04-0.039,1.168,1.168,0,0,0,.11-0.115,0.151,0.151,0,0,0-.04-0.04,0.537,0.537,0,0,0,.08-0.077,0.149,0.149,0,0,0-.04-0.039l0.12-.115c-0.01-.013-0.03-0.026-0.04-0.039l0.12-.194a0.149,0.149,0,0,1-.04-0.039,1.168,1.168,0,0,0,.11-0.115,0.136,0.136,0,0,0-.04-0.039,0.661,0.661,0,0,0,.08-0.077,0.151,0.151,0,0,0-.04-0.04l0.12-.115c-0.01-.013-0.03-0.026-0.04-0.039,0.05-.077.1-0.155,0.16-0.232a0.149,0.149,0,0,1-.04-0.039c0.04-.065.07-0.129,0.11-0.193a0.149,0.149,0,0,0-.04-0.039l0.12-.116c-0.01-.013-0.03-0.026-0.04-0.039,0.03-.026.05-0.051,0.08-0.077-0.01-.013-0.03-0.026-0.04-0.039l0.12-.193a0.151,0.151,0,0,1-.04-0.04,1.067,1.067,0,0,0,.11-0.115,0.149,0.149,0,0,0-.04-0.039,0.661,0.661,0,0,0,.08-0.077,0.151,0.151,0,0,0-.04-0.04c0.05-.1.11-0.206,0.16-0.309a0.149,0.149,0,0,1-.04-0.039l0.12-.115a0.151,0.151,0,0,1-.04-0.04l0.15-.309c-0.01-.013-0.03-0.026-0.04-0.039l0.12-.193a0.53,0.53,0,0,1-.04-0.118,1.067,1.067,0,0,0,.11-0.115,0.559,0.559,0,0,0-.04-0.117c0.07-.115.13-0.232,0.2-0.348a0.532,0.532,0,0,1-.04-0.116,0.664,0.664,0,0,1,.08-0.078,0.515,0.515,0,0,1-.04-0.116c0.02-.052.05-0.1,0.07-0.155a1.9,1.9,0,0,1-.04-0.2c-0.1-.056-0.03-0.038-0.12-0.04a0.149,0.149,0,0,0-.04-0.039Zm-2.79,2.575a0.149,0.149,0,0,0-.04-0.039l-0.15.154a0.151,0.151,0,0,1-.04-0.04c0.4-.4.81-0.794,1.21-1.192a1.248,1.248,0,0,1,.59-0.421C1282.78,558.465,1282.26,558.979,1281.73,559.491Zm-3.41,2.724a0.149,0.149,0,0,1-.04-0.039l0.15-.154a0.149,0.149,0,0,1,.04.039Zm-0.48.384a0.087,0.087,0,1,1,.12-0.115Zm-1.96,1.533a0.117,0.117,0,0,1,.08-0.154,0.151,0.151,0,0,0,.04.04Zm-0.35.269a0.149,0.149,0,0,1-.04-0.039l0.15-.154a0.149,0.149,0,0,1,.04.039Zm-0.32.23a0.127,0.127,0,0,1,.08-0.155c0.01,0.014.03,0.027,0.04,0.039Zm-0.35.268a0.117,0.117,0,0,1,.08-0.154,0.149,0.149,0,0,0,.04.039Zm-0.36.269a0.149,0.149,0,0,0-.04-0.039c0.06-.052.11-0.1,0.16-0.154,0.01,0.013.03,0.026,0.04,0.039C1274.61,565.065,1274.56,565.117,1274.5,565.168Z" transform="translate(-1251 -553)"/>
</svg>
